SPORT: Six Nations Rugby Highlights
On: BBC HD
Date: Sunday 10th March 2013 
Time: 23:35 to 00:20 

The best of the action and reaction from the fourth weekend of the Six Nations. Reigning champions Wales take on Scotland at Murrayfield, Stuart Lancaster's England host Italy at Twickenham, and France travel to Dublin to play Ireland.


General
Complete name: 2013.03.10.6N.Highlights.h720p.x264.mp4
Format : MPEG-4
Format profile : Base Media
Codec ID : isom
File size: 1.22 GiB
Duration : 44mn 1s
Overall bit rate mode: Variable
Overall bit rate : 3 956 Kbps

Video
ID : 1
Format : AVC
Format/Info: Advanced Video Codec
Format profile : High@L4.1
Format settings, CABAC : Yes
Format settings, ReFrames: 5 frames
Codec ID : avc1
Codec ID/Info: Advanced Video Coding
Duration : 44mn 1s
Bit rate : 3 828 Kbps
Maximum bit rate : 15.0 Mbps
Width: 1 280 pixels
Height : 720 pixels
Display aspect ratio : 16:9
Frame rate mode: Constant
Frame rate : 25.000 fps
Color space: YUV
Chroma subsampling : 4:2:0
Bit depth: 8 bits
Scan type: Progressive
Bits/(Pixel*Frame) : 0.166
Stream size: 1.18 GiB (97%)
Writing library: x264 core 130 r2273 b3065e6

Audio
ID : 2
Format : AAC
Format/Info: Advanced Audio Codec
Format profile : LC
Codec ID : 40
Duration : 44mn 1s
Bit rate mode: Variable
Bit rate : 124 Kbps
Maximum bit rate : 129 Kbps
Channel(s) : 2 channels
Channel positions: Front: L R
Sampling rate: 48.0 KHz
Compression mode : Lossy
Delay relative to video: 80ms
Stream size: 39.0 MiB (3%)

